<svg xmlns="http://www.w3.org/2000/svg" viewBox="0 0 598.86 239.37"><defs><style>.cls-1{fill:#2acaf8;}.cls-2{fill:#007ba4;}.cls-3{fill:#ffbd83;}</style></defs><g id="Layer_2" data-name="Layer 2"><g id="Layer_1-2" data-name="Layer 1"><path class="cls-1" d="M56.14,148.67c-1.9,3.36-3.46,6.68-5.57,11.19a20.41,20.41,0,0,1-3.94,6.2c-2.81,2.79-6,2.34-10.63-.78s-7.43-7.84-10-12.71c-5.85-11-11.41-22.09-17.76-32.8-2.57-4.32-5.34-8.54-7.3-13.23-1.4-3.35-1.36-6.5,1.38-8.72,5-4,10.37-7.55,16.47-9.51,5.8-1.86,8.08-.19,11.11,5.2,5.05,9,9.33,18.32,13.48,27.72.9,2.06,1.55,1.83,2.58.23a541.56,541.56,0,0,1,40-54.8c16.81-20.29,33.12-41,51.51-60,1.85-1.91,3.08-4.41,5.61-5.66,1.61-.8,3.34-1.64,4.93-.4s2.66,2.93,1.75,5.15a50.46,50.46,0,0,0-9.06,10.6,7.16,7.16,0,0,0-.89.85S75.05,115.13,56.14,148.67Z"/><path class="cls-2" d="M121.44,104.46c16.75,0,29.73,12.6,29.73,28.65s-13,28.65-29.73,28.65-29.72-12.6-29.72-28.65S104.7,104.46,121.44,104.46Zm0,43.09c7.84,0,13.9-6.38,13.9-14.44s-6.06-14.44-13.9-14.44-13.9,6.38-13.9,14.44S113.61,147.55,121.44,147.55Z"/><path class="cls-2" d="M170.28,105.31H186.1v42.24h23.2v13.36h-39Z"/><path class="cls-2" d="M278,134.57c0,8.45-1.62,14.28-4.69,18.35-4.15,5.54-11.75,8.84-21,8.84s-17.13-3.15-21.35-9.07c-2.92-4.06-4.38-10-4.38-18.12V105.31h15.82v28.34c0,5.37.62,8.52,2.15,10.67s4.23,3.69,8.07,3.69a9.3,9.3,0,0,0,7.6-3.23c1.77-2.15,2.61-5.68,2.61-11.13V105.31H278Z"/><path class="cls-2" d="M322.33,140.79c-3.07-4.15-5.76-7.91-8.52-11.9l-.16.07c.08,4.69.16,9.45.16,14.13v17.82H298.6v-55.6h14.82l14.75,20.12c3.07,4.15,5.76,7.91,8.52,11.9l.16-.07c-.08-4.69-.16-9.45-.16-14.13V105.31H351.9v55.6H337.08Z"/><path class="cls-2" d="M386.68,118.67H369V105.31h51.15v13.36H402.5v42.24H386.68Z"/><path class="cls-2" d="M437.29,105.31h36.25v13.36H453.11v7.07h17.28v12.59H453.11v9.22h21.35v13.36H437.29Z"/><path class="cls-2" d="M493.81,105.31h36.25v13.36H509.63v7.07h17.28v12.59H509.63v9.22H531v13.36H493.81Z"/><path class="cls-2" d="M550.33,105.31h19.43c6.75,0,11.75.84,15.59,2.76,5.37,2.62,9,7.3,9,14.52,0,6.83-3.3,12.06-10.21,15l14.74,23.35H581L568.6,139.79h-2.45v21.12H550.33ZM570.06,129c2.92,0,5-.38,6.22-1.15a5.34,5.34,0,0,0-.46-9c-1.3-.62-3.15-.93-6.75-.93h-2.92V129Z"/><path class="cls-3" d="M217.11,183.76H232.7l22.5,55.61H238L234.08,228H215L211,239.37H194.61Zm7.52,16.9c-1.07,3.53-2.15,6.76-3.45,10.37l-1.92,5.3H230l-1.84-5.3c-1.31-3.77-2.31-6.91-3.38-10.37Z"/><path class="cls-3" d="M272,183.76h15.82V226H311v13.37H272Z"/><path class="cls-3" d="M328.76,183.76h15.82V226h23.2v13.37h-39Z"/><path class="cls-3" d="M395.73,214.48l-21.58-30.72h18.43l5.07,7.84c2.07,3.15,4.22,6.53,6.14,9.67H404c2-3.22,4-6.45,6-9.52l5.14-8h18l-21.5,30.42v25.19H395.73Z"/></g></g></svg>